<svg width="32" height="32" viewBox="0 0 32 32" fill="none" xmlns="http://www.w3.org/2000/svg">
<path d="M12.2105 0H2.94737C2.16704 0.00442122 1.41993 0.316366 0.86815 0.86815C0.316366 1.41993 0.00442122 2.16704 0 2.94737V12.2105C0.00442122 12.9909 0.316366 13.738 0.86815 14.2897C1.41993 14.8415 2.16704 15.1535 2.94737 15.1579H12.2105C12.9909 15.1535 13.738 14.8415 14.2897 14.2897C14.8415 13.738 15.1535 12.9909 15.1579 12.2105V2.94737C15.1535 2.16704 14.8415 1.41993 14.2897 0.86815C13.738 0.316366 12.9909 0.00442122 12.2105 0ZM12.6316 12.2105C12.6316 12.3222 12.5872 12.4293 12.5083 12.5083C12.4293 12.5872 12.3222 12.6316 12.2105 12.6316H2.94737C2.8357 12.6316 2.7286 12.5872 2.64964 12.5083C2.57068 12.4293 2.52632 12.3222 2.52632 12.2105V2.94737C2.52632 2.8357 2.57068 2.7286 2.64964 2.64964C2.7286 2.57068 2.8357 2.52632 2.94737 2.52632H12.2105C12.3222 2.52632 12.4293 2.57068 12.5083 2.64964C12.5872 2.7286 12.6316 2.8357 12.6316 2.94737V12.2105Z" fill="#1562D4"/>
<path d="M29.0527 0H19.7895C19.0092 0.00442122 18.2621 0.316366 17.7103 0.86815C17.1585 1.41993 16.8466 2.16704 16.8422 2.94737V12.2105C16.8466 12.9909 17.1585 13.738 17.7103 14.2897C18.2621 14.8415 19.0092 15.1535 19.7895 15.1579H29.0527C29.833 15.1535 30.5801 14.8415 31.1319 14.2897C31.6837 13.738 31.9956 12.9909 32.0001 12.2105V2.94737C31.9956 2.16704 31.6837 1.41993 31.1319 0.86815C30.5801 0.316366 29.833 0.00442122 29.0527 0ZM29.4737 12.2105C29.4737 12.3222 29.4294 12.4293 29.3504 12.5083C29.2715 12.5872 29.1644 12.6316 29.0527 12.6316H19.7895C19.6779 12.6316 19.5708 12.5872 19.4918 12.5083C19.4128 12.4293 19.3685 12.3222 19.3685 12.2105V2.94737C19.3685 2.8357 19.4128 2.7286 19.4918 2.64964C19.5708 2.57068 19.6779 2.52632 19.7895 2.52632H29.0527C29.1644 2.52632 29.2715 2.57068 29.3504 2.64964C29.4294 2.7286 29.4737 2.8357 29.4737 2.94737V12.2105Z" fill="#1562D4"/>
<path d="M12.2105 16.8421H2.94737C2.16704 16.8465 1.41993 17.1585 0.86815 17.7103C0.316366 18.262 0.00442122 19.0091 0 19.7895V29.0526C0.00442122 29.833 0.316366 30.5801 0.86815 31.1318C1.41993 31.6836 2.16704 31.9956 2.94737 32H12.2105C12.9909 31.9956 13.738 31.6836 14.2897 31.1318C14.8415 30.5801 15.1535 29.833 15.1579 29.0526V19.7895C15.1535 19.0091 14.8415 18.262 14.2897 17.7103C13.738 17.1585 12.9909 16.8465 12.2105 16.8421ZM12.6316 29.0526C12.6316 29.1643 12.5872 29.2714 12.5083 29.3504C12.4293 29.4293 12.3222 29.4737 12.2105 29.4737H2.94737C2.8357 29.4737 2.7286 29.4293 2.64964 29.3504C2.57068 29.2714 2.52632 29.1643 2.52632 29.0526V19.7895C2.52632 19.6778 2.57068 19.5707 2.64964 19.4917C2.7286 19.4128 2.8357 19.3684 2.94737 19.3684H12.2105C12.3222 19.3684 12.4293 19.4128 12.5083 19.4917C12.5872 19.5707 12.6316 19.6778 12.6316 19.7895V29.0526Z" fill="#1562D4"/>
<path d="M29.0527 16.8421H19.7895C19.0092 16.8465 18.2621 17.1585 17.7103 17.7103C17.1585 18.262 16.8466 19.0091 16.8422 19.7895V29.0526C16.8466 29.833 17.1585 30.5801 17.7103 31.1318C18.2621 31.6836 19.0092 31.9956 19.7895 32H29.0527C29.833 31.9956 30.5801 31.6836 31.1319 31.1318C31.6837 30.5801 31.9956 29.833 32.0001 29.0526V19.7895C31.9956 19.0091 31.6837 18.262 31.1319 17.7103C30.5801 17.1585 29.833 16.8465 29.0527 16.8421ZM29.4737 29.0526C29.4737 29.1643 29.4294 29.2714 29.3504 29.3504C29.2715 29.4293 29.1644 29.4737 29.0527 29.4737H19.7895C19.6779 29.4737 19.5708 29.4293 19.4918 29.3504C19.4128 29.2714 19.3685 29.1643 19.3685 29.0526V19.7895C19.3685 19.6778 19.4128 19.5707 19.4918 19.4917C19.5708 19.4128 19.6779 19.3684 19.7895 19.3684H29.0527C29.1644 19.3684 29.2715 19.4128 29.3504 19.4917C29.4294 19.5707 29.4737 19.6778 29.4737 19.7895V29.0526Z" fill="#1562D4"/>
</svg>
