<svg width="32" height="32" viewBox="0 0 32 32" fill="none" xmlns="http://www.w3.org/2000/svg">
<path d="M12.2105 0H2.94737C2.16704 0.00442122 1.41993 0.316366 0.86815 0.86815C0.316366 1.41993 0.00442122 2.16704 0 2.94737V12.2105C0.00442122 12.9909 0.316366 13.738 0.86815 14.2897C1.41993 14.8415 2.16704 15.1535 2.94737 15.1579H12.2105C12.9909 15.1535 13.738 14.8415 14.2897 14.2897C14.8415 13.738 15.1535 12.9909 15.1579 12.2105V2.94737C15.1535 2.16704 14.8415 1.41993 14.2897 0.86815C13.738 0.316366 12.9909 0.00442122 12.2105 0ZM12.6316 12.2105C12.6316 12.3222 12.5872 12.4293 12.5083 12.5083C12.4293 12.5872 12.3222 12.6316 12.2105 12.6316H2.94737C2.8357 12.6316 2.7286 12.5872 2.64964 12.5083C2.57068 12.4293 2.52632 12.3222 2.52632 12.2105V2.94737C2.52632 2.8357 2.57068 2.7286 2.64964 2.64964C2.7286 2.57068 2.8357 2.52632 2.94737 2.52632H12.2105C12.3222 2.52632 12.4293 2.57068 12.5083 2.64964C12.5872 2.7286 12.6316 2.8357 12.6316 2.94737V12.2105Z" fill="#8CA1C0"/>
<path d="M29.0526 0H19.7894C19.0091 0.00442122 18.262 0.316366 17.7102 0.86815C17.1584 1.41993 16.8465 2.16704 16.842 2.94737V12.2105C16.8465 12.9909 17.1584 13.738 17.7102 14.2897C18.262 14.8415 19.0091 15.1535 19.7894 15.1579H29.0526C29.8329 15.1535 30.58 14.8415 31.1318 14.2897C31.6836 13.738 31.9955 12.9909 31.9999 12.2105V2.94737C31.9955 2.16704 31.6836 1.41993 31.1318 0.86815C30.58 0.316366 29.8329 0.00442122 29.0526 0ZM29.4736 12.2105C29.4736 12.3222 29.4293 12.4293 29.3503 12.5083C29.2713 12.5872 29.1642 12.6316 29.0526 12.6316H19.7894C19.6777 12.6316 19.5706 12.5872 19.4917 12.5083C19.4127 12.4293 19.3684 12.3222 19.3684 12.2105V2.94737C19.3684 2.8357 19.4127 2.7286 19.4917 2.64964C19.5706 2.57068 19.6777 2.52632 19.7894 2.52632H29.0526C29.1642 2.52632 29.2713 2.57068 29.3503 2.64964C29.4293 2.7286 29.4736 2.8357 29.4736 2.94737V12.2105Z" fill="#8CA1C0"/>
<path d="M12.2105 16.8421H2.94737C2.16704 16.8465 1.41993 17.1585 0.86815 17.7103C0.316366 18.262 0.00442122 19.0091 0 19.7895V29.0526C0.00442122 29.833 0.316366 30.5801 0.86815 31.1318C1.41993 31.6836 2.16704 31.9956 2.94737 32H12.2105C12.9909 31.9956 13.738 31.6836 14.2897 31.1318C14.8415 30.5801 15.1535 29.833 15.1579 29.0526V19.7895C15.1535 19.0091 14.8415 18.262 14.2897 17.7103C13.738 17.1585 12.9909 16.8465 12.2105 16.8421ZM12.6316 29.0526C12.6316 29.1643 12.5872 29.2714 12.5083 29.3504C12.4293 29.4293 12.3222 29.4737 12.2105 29.4737H2.94737C2.8357 29.4737 2.7286 29.4293 2.64964 29.3504C2.57068 29.2714 2.52632 29.1643 2.52632 29.0526V19.7895C2.52632 19.6778 2.57068 19.5707 2.64964 19.4917C2.7286 19.4128 2.8357 19.3684 2.94737 19.3684H12.2105C12.3222 19.3684 12.4293 19.4128 12.5083 19.4917C12.5872 19.5707 12.6316 19.6778 12.6316 19.7895V29.0526Z" fill="#8CA1C0"/>
<path d="M29.0526 16.8421H19.7894C19.0091 16.8465 18.262 17.1585 17.7102 17.7103C17.1584 18.262 16.8465 19.0091 16.842 19.7895V29.0526C16.8465 29.833 17.1584 30.5801 17.7102 31.1318C18.262 31.6836 19.0091 31.9956 19.7894 32H29.0526C29.8329 31.9956 30.58 31.6836 31.1318 31.1318C31.6836 30.5801 31.9955 29.833 31.9999 29.0526V19.7895C31.9955 19.0091 31.6836 18.262 31.1318 17.7103C30.58 17.1585 29.8329 16.8465 29.0526 16.8421ZM29.4736 29.0526C29.4736 29.1643 29.4293 29.2714 29.3503 29.3504C29.2713 29.4293 29.1642 29.4737 29.0526 29.4737H19.7894C19.6777 29.4737 19.5706 29.4293 19.4917 29.3504C19.4127 29.2714 19.3684 29.1643 19.3684 29.0526V19.7895C19.3684 19.6778 19.4127 19.5707 19.4917 19.4917C19.5706 19.4128 19.6777 19.3684 19.7894 19.3684H29.0526C29.1642 19.3684 29.2713 19.4128 29.3503 19.4917C29.4293 19.5707 29.4736 19.6778 29.4736 19.7895V29.0526Z" fill="#8CA1C0"/>
</svg>
