<svg width="32" height="32" viewBox="0 0 32 32" fill="none" xmlns="http://www.w3.org/2000/svg">
<path d="M28.4444 0H3.55556C1.6 0 0 1.6 0 3.55556V28.4444C0 30.4 1.6 32 3.55556 32H28.4444C30.4 32 32 30.4 32 28.4444V3.55556C32 1.6 30.4 0 28.4444 0ZM7.11111 7.11111H10.6667V10.6667H7.11111V7.11111ZM7.11111 14.2222H10.6667V17.7778H7.11111V14.2222ZM7.11111 21.3333H10.6667V24.8889H7.11111V21.3333ZM24.8889 24.8889H14.2222V21.3333H24.8889V24.8889ZM24.8889 17.7778H14.2222V14.2222H24.8889V17.7778ZM24.8889 10.6667H14.2222V7.11111H24.8889V10.6667Z" fill="#8CA1C1"/>
</svg>
