<svg width="22" height="21" viewBox="0 0 22 21" fill="none" xmlns="http://www.w3.org/2000/svg">
<path d="M9.89607 16.802V15.3076C9.8486 15.3293 9.79701 15.346 9.7477 15.3655C9.71547 15.2416 9.6863 15.1167 9.66149 14.9907C6.70679 15.8337 3.61868 13.4694 3.66525 10.3909C3.66521 10.3909 3.66521 5.25961 3.66521 5.25961V4.89309C3.66521 4.4899 3.99509 4.16004 4.39825 4.16004H9.7971C9.66883 3.94012 9.43425 3.79352 9.16303 3.79352C8.84049 3.79352 8.54727 3.65058 8.34569 3.427H4.39825C3.58823 3.427 2.93217 4.08307 2.93217 4.89309H1.19012C0.534032 4.89309 0 5.42712 0 6.08339V8.5583C0 10.3218 1.39206 11.7623 3.13465 11.8487C3.64687 13.7057 5.10796 15.1691 6.9639 15.6841V16.802C3.67939 17.7652 5.18118 20.3562 8.43001 20.2869C11.6786 20.3563 13.1807 17.7652 9.89607 16.802ZM2.93217 10.3909V11.0978C1.6905 10.9196 0.733042 9.84864 0.733042 8.5583V6.08339C0.733042 5.83122 0.938136 5.62613 1.19012 5.62613H2.93217V10.3909ZM8.42998 19.5539C6.24005 19.5417 4.74435 18.3133 6.98488 17.5624C7.23772 19.2237 9.62279 19.2226 9.87508 17.5624C12.1157 18.3133 10.6198 19.5417 8.42998 19.5539Z" fill="#1562D4"/>
<path d="M16.86 7.1399V6.08432C16.86 5.42823 16.3249 4.89312 15.6688 4.89312H13.9279C13.9279 4.39099 13.6786 3.95116 13.2938 3.68726C13.1545 3.75689 12.9932 3.79356 12.8283 3.79356C12.5571 3.79356 12.3225 3.94016 12.1942 4.16008H12.4618C12.8649 4.16008 13.1948 4.48994 13.1948 4.89312V7.77765C13.4331 7.66035 13.6786 7.55772 13.9279 7.46976V5.62617H15.6688C15.9217 5.62617 16.127 5.83142 16.127 6.08432V7.09592C16.3725 7.09592 16.6181 7.11057 16.86 7.1399Z" fill="#1562D4"/>
<path d="M16.1474 7.82814C8.60788 8.04283 8.22666 18.8613 15.7838 19.5432C18.7999 19.7831 21.6641 17.374 21.953 14.3578C22.4032 10.9769 19.5569 7.77134 16.1474 7.82814ZM21.225 14.2745C20.9672 16.9129 18.4759 19.0212 15.8267 18.8112C9.23714 18.1831 9.50454 8.8107 16.1195 8.56116C19.0995 8.48568 21.6292 11.3206 21.225 14.2745Z" fill="#1562D4"/>
<path d="M6.96393 6.35905C6.95622 5.87837 6.23901 5.8764 6.23089 6.35905C6.23089 7.16744 5.57337 7.82513 4.76481 7.82513C4.28413 7.83287 4.28216 8.55003 4.76483 8.55818C5.57337 8.55818 6.23089 9.21587 6.23089 10.0243C6.23861 10.5049 6.95581 10.5069 6.96393 10.0242C6.96393 9.21587 7.62145 8.55818 8.43002 8.55818C8.9107 8.55041 8.91266 7.83328 8.43 7.82513C7.62146 7.82513 6.96393 7.16744 6.96393 6.35905Z" fill="#1562D4"/>
<path d="M13.1947 2.69385C13.1947 2.49144 13.0308 2.32733 12.8282 2.32733C12.0196 2.32733 11.3621 1.66963 11.3621 0.861247C11.3544 0.380569 10.6372 0.378601 10.6291 0.861247C10.6291 1.66963 9.97157 2.32733 9.163 2.32733C8.68232 2.33507 8.68036 3.05223 9.16302 3.06037C9.97157 3.06037 10.6291 3.71807 10.6291 4.52646C10.6368 5.00711 11.354 5.00908 11.3621 4.52643C11.3621 3.71807 12.0196 3.06037 12.8282 3.06037C13.0308 3.06037 13.1947 2.89626 13.1947 2.69385Z" fill="#1562D4"/>
<path d="M11.5454 13.51C11.4308 15.9781 13.3471 18.0865 15.7714 18.2638C15.6747 15.953 13.826 13.8777 11.5454 13.51Z" fill="#1562D4"/>
<path d="M11.626 12.7805C14.2641 13.1785 16.4169 15.5895 16.5007 18.2636C17.395 18.1903 18.216 17.8641 18.8941 17.351L12.8135 10.5154C12.2234 11.1311 11.8019 11.9118 11.626 12.7805Z" fill="#1562D4"/>
<path d="M17.2229 12.7145C16.3286 11.7102 15.8154 10.4347 15.7494 9.11523C14.8552 9.18854 14.0341 9.51842 13.3597 10.0279L19.4403 16.8635C20.0304 16.2477 20.4519 15.467 20.6279 14.5984C19.3194 14.3785 18.1135 13.7187 17.2229 12.7145Z" fill="#1562D4"/>
<path d="M16.4824 9.11523C16.5733 11.4245 18.43 13.4996 20.7084 13.8727C20.8246 11.3999 18.9119 9.29236 16.4824 9.11523Z" fill="#1562D4"/>
</svg>
