<svg width="20" height="20" viewBox="0 0 20 20" fill="none" xmlns="http://www.w3.org/2000/svg">
<path d="M10 0.399902C7.45395 0.399902 5.01215 1.41133 3.2118 3.21168C1.41145 5.01203 0.400024 7.45382 0.400024 9.9999C0.400024 12.546 1.41145 14.9878 3.2118 16.7881C5.01215 18.5885 7.45395 19.5999 10 19.5999C12.5461 19.5999 14.9879 18.5885 16.7882 16.7881C18.5886 14.9878 19.6 12.546 19.6 9.9999C19.6 7.45382 18.5886 5.01203 16.7882 3.21168C14.9879 1.41133 12.5461 0.399902 10 0.399902ZM6.51042 2.3559L9.40242 4.0431V6.0831L6.07962 8.4255L4.20762 7.7451L3.45642 4.7307C4.27656 3.71306 5.32209 2.90005 6.51042 2.3559ZM1.64082 10.8303L3.83322 8.8863L5.68842 9.5595L6.94242 13.5075L6.08202 14.7951H3.10242C2.28343 13.6206 1.78012 12.2553 1.64082 10.8303ZM8.04763 18.1719L7.06962 15.4767L7.92162 14.2011H12.082L12.9352 15.4767L11.9572 18.1707C10.6721 18.4775 9.33277 18.4787 8.04763 18.1719ZM16.8976 14.7939H13.924L13.06 13.5039L14.29 9.5595L16.1704 8.8827L18.3592 10.8291C18.2199 12.2541 17.7166 13.6194 16.8976 14.7939ZM16.5496 4.7379L15.7984 7.7415L13.8976 8.4255L10.6012 6.0831V4.0431L13.492 2.3559C14.6824 2.9016 15.7293 3.71716 16.5496 4.7379Z" fill="#1562D4"/>
</svg>
