<svg width="22" height="22" viewBox="0 0 22 22" fill="none" xmlns="http://www.w3.org/2000/svg">
<path d="M20.801 5.42444C20.4902 4.71957 20.0822 4.06168 19.589 3.46994L16.9745 6.08444C17.5866 6.44666 18.3076 6.57917 19.0084 6.45824C19.7093 6.33731 20.3442 5.97083 20.7995 5.42444M15.9125 5.02394L18.527 2.40944C17.9357 1.91629 17.2784 1.50833 16.574 1.19744C16.0272 1.65279 15.6605 2.28799 15.5396 2.98919C15.4186 3.69038 15.5514 4.41173 15.914 5.02394M14 3.49994C14 4.47194 14.309 5.37194 14.8325 6.10694L13.625 7.31444L8.393 2.08094C9.33326 1.39809 10.4067 0.920722 11.5435 0.679868C12.6803 0.439013 13.8551 0.44006 14.9915 0.682939C14.3486 1.48092 13.9986 2.47518 14 3.49994ZM14.6855 8.37494L15.893 7.16744C16.628 7.69244 17.528 7.99994 18.5 7.99994C19.5245 8.00137 20.5186 7.652 21.317 7.00994C21.437 7.57094 21.5 8.15294 21.5 8.74994C21.5 10.5649 20.9135 12.2449 19.919 13.6084L14.6855 8.37494ZM18.926 14.7364L13.625 9.43544L12.7175 10.3429C14.2776 12.1211 15.2348 14.3474 15.452 16.7029C16.772 16.3384 17.96 15.6514 18.926 14.7364ZM5.2955 6.54794C5.66 5.22794 6.3455 4.03994 7.2605 3.07394L12.5645 8.37494L11.657 9.28244C9.87884 7.72237 7.65102 6.76515 5.2955 6.54794ZM2.75 7.99994C2.15326 7.99994 1.58097 8.23699 1.15901 8.65895C0.737053 9.08091 0.5 9.6532 0.5 10.2499V11.7499C0.5 14.3358 1.52723 16.8158 3.35571 18.6442C5.18419 20.4727 7.66414 21.4999 10.25 21.4999H11.75C12.3467 21.4999 12.919 21.2629 13.341 20.8409C13.7629 20.419 14 19.8467 14 19.2499V17.7499C14 15.1641 12.9728 12.6841 11.1443 10.8556C9.31581 9.02717 6.83586 7.99994 4.25 7.99994H2.75ZM5.594 13.0939C5.66367 13.0241 5.74643 12.9687 5.83755 12.9309C5.92867 12.8931 6.02635 12.8736 6.125 12.8736C6.22365 12.8736 6.32133 12.8931 6.41245 12.9309C6.50357 12.9687 6.58633 13.0241 6.656 13.0939L8.906 15.3439C8.97573 15.4137 9.03105 15.4965 9.06878 15.5876C9.10652 15.6787 9.12595 15.7763 9.12595 15.8749C9.12595 15.9736 9.10652 16.0712 9.06878 16.1623C9.03105 16.2534 8.97573 16.3362 8.906 16.4059C8.83627 16.4757 8.75348 16.531 8.66238 16.5687C8.57127 16.6065 8.47362 16.6259 8.375 16.6259C8.27638 16.6259 8.17873 16.6065 8.08762 16.5687C7.99652 16.531 7.91373 16.4757 7.844 16.4059L5.594 14.1559C5.52416 14.0863 5.46874 14.0035 5.43093 13.9124C5.39312 13.8213 5.37366 13.7236 5.37366 13.6249C5.37366 13.5263 5.39312 13.4286 5.43093 13.3375C5.46874 13.2464 5.52416 13.1636 5.594 13.0939Z" fill="#1562D4"/>
</svg>
