<svg width="24" height="25" viewBox="0 0 24 25" fill="none" xmlns="http://www.w3.org/2000/svg">
<path d="M13.6877 18.225C12.2713 18.2511 10.8775 17.8678 9.67359 17.1212L4.32148 22.4733L2 20.0849L7.35211 14.7328C6.34924 13.1236 6.01325 11.1868 6.41549 9.33385L13.7144 16.6596C13.7144 16.7064 13.7144 16.7532 13.681 16.8C13.6497 16.9677 13.634 17.1379 13.6342 17.3085C13.6342 17.3754 13.6342 17.4557 13.6342 17.5226C13.6285 17.7579 13.6464 17.9933 13.6877 18.225ZM17.6349 13.5018C18.2264 13.4995 18.8104 13.6346 19.3408 13.8965C19.6074 14.0119 19.8572 14.1627 20.0835 14.3448C20.687 13.2225 20.9888 11.9628 20.9593 10.6889C20.9298 9.41504 20.5701 8.17063 19.9153 7.07751C19.2605 5.9844 18.3331 5.08003 17.2238 4.45293C16.1146 3.82583 14.8615 3.49749 13.5873 3.50004C12.6207 3.49669 11.6632 3.68607 10.7706 4.0571C9.87808 4.42813 9.06845 4.97338 8.38908 5.66096C7.74553 6.3105 7.22629 7.07235 6.85704 7.90885L14.2831 15.3349C14.6455 14.7749 15.1417 14.3141 15.7269 13.9941C16.3121 13.674 16.9679 13.5048 17.6349 13.5018ZM20.9799 17.5159C20.9798 17.0167 20.868 16.5239 20.6527 16.0736C20.4374 15.6233 20.124 15.2269 19.7356 14.9134C19.5305 14.7482 19.3058 14.6089 19.0665 14.4986C18.6245 14.284 18.1397 14.172 17.6482 14.1708C17.0646 14.1718 16.4915 14.3255 15.9856 14.6165C15.4798 14.9076 15.0589 15.3259 14.7648 15.83C14.5657 16.1656 14.4233 16.5318 14.3433 16.9138C14.3249 17.0312 14.3137 17.1496 14.3099 17.2684C14.3029 17.3059 14.3029 17.3445 14.3099 17.3821C14.3099 17.4356 14.3099 17.4824 14.3099 17.5293C14.3112 17.7539 14.3336 17.9779 14.3768 18.1983C14.531 18.9538 14.9415 19.6329 15.5389 20.1206C16.1363 20.6082 16.8838 20.8745 17.6549 20.8743C18.5421 20.8743 19.3929 20.5219 20.0203 19.8946C20.6476 19.2673 21 18.4164 21 17.5293L20.9799 17.5159Z" fill="#1562D4"/>
</svg>
