<svg width="20" height="19" viewBox="0 0 20 19" fill="none" xmlns="http://www.w3.org/2000/svg">
<path d="M2.41793 5.05176C1.10586 5.05176 0 7.41555 0 10.2121C0 13.0118 1.10586 15.3756 2.41793 15.3756C3.72621 15.3756 4.83207 13.0121 4.83207 10.2121C4.83241 7.41555 3.72655 5.05176 2.41793 5.05176ZM2.41793 14.0966C1.34517 14.0966 0.537931 12.4293 0.537931 10.2121C0.537931 7.99797 1.34517 6.33072 2.41793 6.33072C3.4869 6.33072 4.29414 7.99797 4.29414 10.2121C4.29414 12.4293 3.4869 14.0966 2.41793 14.0966Z" fill="#1562D4"/>
<path d="M2.41798 7.01965C1.9204 7.01965 1.22729 8.23241 1.22729 10.2121C1.22729 12.1948 1.9204 13.4076 2.41798 13.4076C2.91178 13.4076 3.60488 12.1948 3.60488 10.2121C3.60488 8.23241 2.91178 7.01965 2.41798 7.01965ZM2.41798 11.8462C1.8835 11.8462 1.51488 11.1721 1.51488 10.2121C1.51488 9.25172 1.8835 8.58103 2.41798 8.58103C2.94867 8.58103 3.31729 9.25172 3.31729 10.2121C3.31764 11.1721 2.94867 11.8462 2.41798 11.8462Z" fill="#1562D4"/>
<path d="M4.68485 5.05176H3.90002C4.87278 6.02659 5.52175 7.95038 5.52175 10.2121C5.52175 12.4766 4.87278 14.3973 3.90002 15.3756H4.68485C5.99313 15.3756 7.09899 13.0121 7.09899 10.2121C7.09899 7.41555 5.99313 5.05176 4.68485 5.05176Z" fill="#1562D4"/>
<path d="M2.2041 10.2121C2.2041 10.7028 2.33341 11.0183 2.41789 11.1279C2.49893 11.0183 2.62789 10.7028 2.62789 10.2121C2.62789 9.72449 2.49858 9.40897 2.41789 9.29932C2.33341 9.40897 2.2041 9.72449 2.2041 10.2121Z" fill="#1562D4"/>
<path d="M15.319 11.8462H14.309C14.5524 12.8652 14.991 13.4114 15.319 13.4114C15.8128 13.4114 16.5021 12.1948 16.5021 10.2121C16.5021 8.23242 15.8128 7.01587 15.319 7.01587C14.9907 7.01587 14.5521 7.56208 14.309 8.5807H15.319C15.8459 8.5807 16.2183 9.25139 16.2183 10.2117C16.2183 11.1721 15.8459 11.8462 15.319 11.8462Z" fill="#1562D4"/>
<path d="M15.3189 5.05176C14.2941 5.05176 13.3578 6.51383 13.0261 8.58072H13.6047C13.8958 7.18452 14.541 6.32693 15.3189 6.32693C16.3878 6.32693 17.1913 7.99797 17.1913 10.2121C17.1913 12.4293 16.3878 14.1004 15.3189 14.1004C14.541 14.1004 13.8961 13.2428 13.6047 11.8462H13.0261C13.3578 13.9131 14.2941 15.3752 15.3189 15.3752C16.6237 15.3752 17.7296 13.0118 17.7296 10.2118C17.7296 7.41555 16.6237 5.05176 15.3189 5.05176Z" fill="#1562D4"/>
<path d="M17.582 5.05176H16.8007C17.7734 6.02659 18.4186 7.95038 18.4186 10.2121C18.4186 12.4766 17.7734 14.3973 16.8007 15.3756H17.582C18.8941 15.3756 20 13.0121 20 10.2121C20 7.41555 18.8941 5.05176 17.582 5.05176Z" fill="#1562D4"/>
<path d="M15.2893 11.1573C15.3665 11.0876 15.529 10.758 15.529 10.2121C15.529 9.66968 15.3665 9.33967 15.2893 9.27002H7.74792C7.77379 9.5783 7.78861 9.88968 7.78861 10.2121C7.78861 10.5376 7.77379 10.8497 7.74792 11.1573H15.2893Z" fill="#1562D4"/>
<path d="M7.85763 2.78552H8.92143C9.22798 2.78552 9.47798 2.52897 9.47798 2.2131C9.47798 1.89759 9.22798 1.64069 8.92143 1.64069L7.88453 1.66793V0.572414C7.88453 0.256896 7.63487 0 7.32798 0C7.02108 0 6.77108 0.256896 6.77108 0.572414L6.79832 1.64069H5.73453C5.42763 1.64069 5.17798 1.89759 5.17798 2.2131C5.17798 2.52897 5.42763 2.78552 5.73453 2.78552L6.77074 2.75862V3.85379C6.77074 4.16966 7.02074 4.42621 7.32763 4.42621C7.63487 4.42621 7.88419 4.16966 7.88419 3.85379L7.85763 2.78552Z" fill="#1562D4"/>
<path d="M12.6272 15.8351L11.5903 15.862V14.7669C11.5903 14.451 11.341 14.1945 11.0338 14.1945C10.7265 14.1945 10.4769 14.451 10.4769 14.7669L10.5038 15.8351H9.44034C9.1331 15.8351 8.88379 16.0917 8.88379 16.4076C8.88379 16.7231 9.13344 16.98 9.44034 16.98L10.4769 16.9527V18.0483C10.4769 18.3638 10.7265 18.6207 11.0338 18.6207C11.341 18.6207 11.5903 18.3638 11.5903 18.0483L11.5638 16.98H12.6272C12.9341 16.98 13.1838 16.7231 13.1838 16.4076C13.1838 16.0917 12.9341 15.8351 12.6272 15.8351Z" fill="#1562D4"/>
</svg>
