<svg width="31" height="32" viewBox="0 0 31 32" fill="none" xmlns="http://www.w3.org/2000/svg">
<path fill-rule="evenodd" clip-rule="evenodd" d="M10.6567 1.95871C10.6566 1.59638 10.7807 1.24475 11.0086 0.961394C11.2364 0.678034 11.5546 0.479724 11.9111 0.398923C14.273 -0.134052 16.7258 -0.132959 19.0873 0.402123C19.444 0.48261 19.7626 0.680785 19.9908 0.964175C20.219 1.24756 20.3433 1.59936 20.3433 1.96191V4.91671C20.3433 5.19753 20.4179 5.4734 20.5596 5.71659C20.7013 5.95978 20.9051 6.16173 21.1506 6.30214C21.396 6.44254 21.6744 6.51646 21.9578 6.51646C22.2412 6.51646 22.5196 6.44254 22.765 6.30213L25.3497 4.82233C25.6668 4.64095 26.0367 4.57176 26.3987 4.62612C26.7607 4.68048 27.0933 4.85516 27.3419 5.12149C28.985 6.88316 30.2101 8.98639 30.9276 11.2775C31.036 11.6239 31.0223 11.9966 30.8889 12.3344C30.7554 12.6722 30.51 12.955 30.193 13.1364L27.6083 14.6146C27.3629 14.755 27.1591 14.957 27.0174 15.2002C26.8758 15.4434 26.8012 15.7192 26.8012 16C26.8012 16.2808 26.8758 16.5567 27.0174 16.7999C27.1591 17.0431 27.3629 17.245 27.6083 17.3854L30.1914 18.862C30.5081 19.0434 30.7532 19.3259 30.8867 19.6634C31.0201 20.0008 31.034 20.3731 30.926 20.7194C30.2134 23.0136 28.9884 25.1193 27.3419 26.8802C27.0931 27.1462 26.7604 27.3206 26.3984 27.3747C26.0364 27.4287 25.6666 27.3593 25.3497 27.1777L22.765 25.6979C22.5196 25.5575 22.2412 25.4836 21.9578 25.4836C21.6744 25.4836 21.396 25.5575 21.1506 25.6979C20.9051 25.8383 20.7013 26.0403 20.5596 26.2834C20.4179 26.5266 20.3433 26.8025 20.3433 27.0833V30.0429C20.3429 30.4052 20.2185 30.7566 19.9903 31.0397C19.7621 31.3228 19.4438 31.5207 19.0873 31.6011C16.7253 32.134 14.2726 32.1329 11.9111 31.5979C11.5546 31.5171 11.2364 31.3188 11.0086 31.0354C10.7807 30.7521 10.6566 30.4005 10.6567 30.0381V27.0833C10.6567 26.8025 10.5821 26.5266 10.4404 26.2834C10.2987 26.0403 10.0949 25.8383 9.84943 25.6979C9.604 25.5575 9.32561 25.4836 9.04222 25.4836C8.75883 25.4836 8.48043 25.5575 8.23501 25.6979L5.65028 27.1777C5.33319 27.3591 4.96329 27.4283 4.60129 27.3739C4.23929 27.3196 3.90669 27.1449 3.65806 26.8786C2.83896 26.0007 2.12146 25.0348 1.51892 23.9989C0.915023 22.9637 0.429829 21.8647 0.072382 20.7226C-0.0359999 20.3761 -0.0223338 20.0034 0.111139 19.6656C0.244611 19.3279 0.489964 19.0451 0.806953 18.8636L3.39006 17.3854C3.63547 17.245 3.83926 17.0431 3.98094 16.7999C4.12262 16.5567 4.19721 16.2808 4.19721 16C4.19721 15.7192 4.12262 15.4434 3.98094 15.2002C3.83926 14.957 3.63547 14.755 3.39006 14.6146L0.810183 13.138C0.493243 12.9569 0.247787 12.6745 0.114033 12.337C-0.0197197 11.9996 -0.0338366 11.6271 0.0739963 11.2807C0.786833 8.98698 2.01183 6.88184 3.65806 5.12149C3.90659 4.85554 4.23889 4.68111 4.60054 4.62675C4.96218 4.5724 5.33174 4.64136 5.64867 4.82233L8.23501 6.30213C8.48043 6.44254 8.75883 6.51646 9.04222 6.51646C9.32561 6.51646 9.604 6.44254 9.84943 6.30214C10.0949 6.16173 10.2987 5.95978 10.4404 5.71659C10.5821 5.4734 10.6567 5.19753 10.6567 4.91671V1.95871ZM15.5 20.7994C16.7845 20.7994 18.0165 20.2937 18.9248 19.3937C19.8331 18.4936 20.3433 17.2729 20.3433 16C20.3433 14.7272 19.8331 13.5064 18.9248 12.6064C18.0165 11.7063 16.7845 11.2007 15.5 11.2007C14.2155 11.2007 12.9835 11.7063 12.0752 12.6064C11.1669 13.5064 10.6567 14.7272 10.6567 16C10.6567 17.2729 11.1669 18.4936 12.0752 19.3937C12.9835 20.2937 14.2155 20.7994 15.5 20.7994Z" fill="#1562D4"/>
</svg>
